<svg width="45" height="58" viewBox="0 0 45 58" fill="none" xmlns="http://www.w3.org/2000/svg">
<g id="Vector">
<path fill-rule="evenodd" clip-rule="evenodd" d="M43.8021 16.7766C44.6372 16.2197 44.9878 15.1557 44.5693 14.2433C40.7145 5.83791 32.2255 0 22.3732 0C12.5208 0 4.03189 5.83791 0.177028 14.2433C-0.241472 15.1558 0.109001 16.2197 0.944272 16.7766C2.14002 17.5738 3.76821 16.997 4.39529 15.7039C7.62923 9.03537 14.4642 4.4375 22.3732 4.4375C30.2821 4.4375 37.117 9.03537 40.351 15.7039C40.978 16.997 42.6062 17.5738 43.8021 16.7766Z" fill="#F01D0F"/>
<path fill-rule="evenodd" clip-rule="evenodd" d="M36.3622 21.7364C37.0604 21.2709 37.4114 20.4185 37.1529 19.6202C35.1352 13.3845 29.2808 8.875 22.3732 8.875C15.4655 8.875 9.61113 13.3845 7.59333 19.6202C7.33498 20.4185 7.68588 21.2709 8.3841 21.7364C9.68124 22.6013 11.4933 21.7216 12.0742 20.2749C13.7127 16.194 17.7065 13.3125 22.3732 13.3125C27.0399 13.3125 31.0336 16.194 32.6722 20.2749C33.253 21.7216 35.0651 22.6013 36.3622 21.7364Z" fill="#F01D0F"/>
<path fill-rule="evenodd" clip-rule="evenodd" d="M22.3732 26.625C23.5986 26.625 24.5919 25.6317 24.5919 24.4062C24.5919 23.1808 23.5986 22.1875 22.3732 22.1875C21.1477 22.1875 20.1544 23.1808 20.1544 24.4062C20.1544 25.6317 21.1477 26.625 22.3732 26.625ZM22.3732 31.0625C26.0494 31.0625 29.0294 28.0825 29.0294 24.4062C29.0294 20.73 26.0494 17.75 22.3732 17.75C18.6969 17.75 15.7169 20.73 15.7169 24.4062C15.7169 28.0825 18.6969 31.0625 22.3732 31.0625Z" fill="#F01D0F"/>
<path fill-rule="evenodd" clip-rule="evenodd" d="M29.5723 32.847C27.6347 34.5013 25.1206 35.5 22.3732 35.5C19.6259 35.5 17.1118 34.5013 15.1742 32.8473L6.98324 54.6897C6.55298 55.8371 7.1343 57.116 8.28166 57.5462C9.42897 57.9764 10.7079 57.3951 11.1383 56.2478L13.6435 49.5671C16.3783 50.5156 19.3155 51.031 22.3732 51.031C25.4308 51.031 28.3682 50.5156 31.1028 49.5669L33.6082 56.2478C34.0385 57.3951 35.3174 57.9764 36.4649 57.5462C37.6122 57.116 38.1935 55.8371 37.7633 54.6897L29.5723 32.847ZM15.2026 45.4094L17.5418 39.1711C19.0626 39.6686 20.6865 39.9373 22.3732 39.9373C24.0599 39.9373 25.684 39.6686 27.2045 39.1711L29.5437 45.4094C27.2946 46.1771 24.8823 46.5935 22.3732 46.5935C19.864 46.5935 17.452 46.1771 15.2026 45.4094Z" fill="#F01D0F"/>
</g>
</svg>
