<svg width="38" height="49" viewBox="0 0 38 49" fill="none" xmlns="http://www.w3.org/2000/svg">
<g id="Vector" filter="url(#filter0_i_71_57)">
<path fill-rule="evenodd" clip-rule="evenodd" d="M37.1981 14.25C37.9074 13.777 38.2051 12.8732 37.8497 12.0982C34.576 4.9587 27.3669 0 19 0C10.6331 0 3.42401 4.9587 0.150338 12.0982C-0.205066 12.8733 0.0925674 13.777 0.801906 14.25C1.81738 14.9271 3.20008 14.4372 3.73262 13.3388C6.47899 7.67461 12.2835 3.7692 19 3.7692C25.7165 3.7692 31.5209 7.67461 34.2674 13.3388C34.7999 14.4372 36.1825 14.9271 37.1981 14.25Z" fill="#F01D0F"/>
<path fill-rule="evenodd" clip-rule="evenodd" d="M30.8799 18.4628C31.4729 18.0675 31.771 17.3434 31.5515 16.6653C29.8379 11.3687 24.8662 7.53839 19 7.53839C13.1338 7.53839 8.16208 11.3687 6.4485 16.6653C6.2291 17.3434 6.5271 18.0675 7.12004 18.4628C8.22162 19.1975 9.76048 18.4502 10.2538 17.2215C11.6453 13.7551 15.0369 11.3076 19 11.3076C22.9631 11.3076 26.3547 13.7551 27.7462 17.2215C28.2395 18.4502 29.7784 19.1975 30.8799 18.4628Z" fill="#F01D0F"/>
<path fill-rule="evenodd" clip-rule="evenodd" d="M19 22.6152C20.0407 22.6152 20.8842 21.7714 20.8842 20.7306C20.8842 19.6897 20.0407 18.846 19 18.846C17.9593 18.846 17.1158 19.6897 17.1158 20.7306C17.1158 21.7714 17.9593 22.6152 19 22.6152ZM19 26.3844C22.122 26.3844 24.6527 23.8532 24.6527 20.7306C24.6527 17.608 22.122 15.0768 19 15.0768C15.878 15.0768 13.3473 17.608 13.3473 20.7306C13.3473 23.8532 15.878 26.3844 19 26.3844Z" fill="#F01D0F"/>
<path fill-rule="evenodd" clip-rule="evenodd" d="M25.1138 27.9002C23.4683 29.3053 21.3333 30.1536 19 30.1536C16.6669 30.1536 14.5319 29.3053 12.8864 27.9003L5.93039 46.4533C5.565 47.4278 6.05867 48.5141 7.03305 48.8795C8.00739 49.2449 9.09346 48.7512 9.459 47.7766L11.5865 42.1021C13.909 42.9078 16.4033 43.3456 19 43.3456C21.5967 43.3456 24.0912 42.9078 26.4135 42.1019L28.5412 47.7766C28.9066 48.7512 29.9926 49.2449 30.9672 48.8795C31.9415 48.5141 32.4352 47.4278 32.0698 46.4533L25.1138 27.9002ZM12.9105 38.5706L14.8971 33.2718C16.1885 33.6944 17.5676 33.9226 19 33.9226C20.4324 33.9226 21.8117 33.6944 23.1029 33.2718L25.0895 38.5706C23.1794 39.2226 21.1309 39.5764 19 39.5764C16.8691 39.5764 14.8208 39.2226 12.9105 38.5706Z" fill="#F01D0F"/>
</g>
<defs>
<filter id="filter0_i_71_57" x="0" y="0" width="38" height="53" filterUnits="userSpaceOnUse" color-interpolation-filters="sRGB">
<feFlood flood-opacity="0" result="BackgroundImageFix"/>
<feBlend mode="normal" in="SourceGraphic" in2="BackgroundImageFix" result="shape"/>
<feColorMatrix in="SourceAlpha" type="matrix" values="0 0 0 0 0 0 0 0 0 0 0 0 0 0 0 0 0 0 127 0" result="hardAlpha"/>
<feOffset dy="4"/>
<feGaussianBlur stdDeviation="2"/>
<feComposite in2="hardAlpha" operator="arithmetic" k2="-1" k3="1"/>
<feColorMatrix type="matrix" values="0 0 0 0 0 0 0 0 0 0 0 0 0 0 0 0 0 0 0.25 0"/>
<feBlend mode="normal" in2="shape" result="effect1_innerShadow_71_57"/>
</filter>
</defs>
</svg>
