<svg width="83" height="70" viewBox="0 0 83 70" fill="none" xmlns="http://www.w3.org/2000/svg">
<g id="Vector" filter="url(#filter0_i_41_190)">
<path fill-rule="evenodd" clip-rule="evenodd" d="M34.2826 0.552284C36.538 0.501762 38.9414 0.476501 41.5 0.476501C79.5429 0.476501 83 5.88954 83 29.3461C83 52.8026 79.5429 58.2156 41.5 58.2156C39.6343 58.2156 37.8552 58.2012 36.1519 58.1759C36.1483 58.1759 36.1447 58.1759 36.1447 58.1795L20.0463 68.9118C17.6465 70.5105 14.4348 68.7891 14.4348 65.9058V56.1154C14.4348 56.1082 14.4276 56.1009 14.4203 56.0973C3.70613 53.3764 0.833608 47.6277 0.173217 36.5635C0.0433038 34.373 0 31.9732 0 29.3461C0 7.46654 3.00965 1.28485 34.2826 0.552284ZM8.93874 44.4088C7.70818 41.7672 7.21739 37.4692 7.21739 29.3461C7.21378 23.6479 7.36174 19.7614 8.15204 16.6326C8.76913 13.7782 9.11917 12.9951 10.8622 11.8547C12.284 10.7685 14.9039 9.61733 20.0644 8.82341C25.3258 8.00063 32.0705 7.6975 41.3268 7.69389H41.5C50.8429 7.69028 57.6417 7.99702 62.9357 8.82341C68.0961 9.61733 70.716 10.7685 72.1378 11.8547C73.8808 12.9951 74.2309 13.7782 74.848 16.6326C75.6383 19.7614 75.7826 23.6479 75.7826 29.3461C75.7826 35.0442 75.6383 38.9308 74.848 42.0595C74.2309 44.914 73.8808 45.6935 72.1378 46.8374C70.716 47.9236 68.0961 49.0748 62.9357 49.8687C57.6417 50.6951 50.8429 50.9982 41.5 50.9982C39.6632 50.9982 37.9382 50.9838 36.271 50.9585C35.1776 51.0235 33.0881 51.637 32.139 52.1747L21.6522 59.1647V56.1154C21.6522 52.651 19.256 49.8795 16.1958 49.1037C11.1833 47.8298 9.75791 46.1698 8.93874 44.4088ZM23.4565 36.5635C26.4445 36.5635 28.8696 34.1384 28.8696 31.1504C28.8696 28.1624 26.4445 25.7374 23.4565 25.7374C20.4685 25.7374 18.0435 28.1624 18.0435 31.1504C18.0435 34.1384 20.4685 36.5635 23.4565 36.5635ZM46.913 31.1504C46.913 34.1384 44.488 36.5635 41.5 36.5635C38.512 36.5635 36.087 34.1384 36.087 31.1504C36.087 28.1624 38.512 25.7374 41.5 25.7374C44.488 25.7374 46.913 28.1624 46.913 31.1504ZM59.5435 36.5635C62.5315 36.5635 64.9565 34.1384 64.9565 31.1504C64.9565 28.1624 62.5315 25.7374 59.5435 25.7374C56.5555 25.7374 54.1304 28.1624 54.1304 31.1504C54.1304 34.1384 56.5555 36.5635 59.5435 36.5635Z" fill="#5BB58A"/>
</g>
<defs>
<filter id="filter0_i_41_190" x="0" y="0.476501" width="83" height="77.5673" filterUnits="userSpaceOnUse" color-interpolation-filters="sRGB">
<feFlood flood-opacity="0" result="BackgroundImageFix"/>
<feBlend mode="normal" in="SourceGraphic" in2="BackgroundImageFix" result="shape"/>
<feColorMatrix in="SourceAlpha" type="matrix" values="0 0 0 0 0 0 0 0 0 0 0 0 0 0 0 0 0 0 127 0" result="hardAlpha"/>
<feOffset dy="8.52028"/>
<feGaussianBlur stdDeviation="4.26014"/>
<feComposite in2="hardAlpha" operator="arithmetic" k2="-1" k3="1"/>
<feColorMatrix type="matrix" values="0 0 0 0 0 0 0 0 0 0 0 0 0 0 0 0 0 0 0.25 0"/>
<feBlend mode="normal" in2="shape" result="effect1_innerShadow_41_190"/>
</filter>
</defs>
</svg>
