<svg width="53" height="50" viewBox="0 0 53 50" fill="none" xmlns="http://www.w3.org/2000/svg">
<g id="Vector" filter="url(#filter0_i_19_16)">
<path fill-rule="evenodd" clip-rule="evenodd" d="M48.4598 25.1114C45.6254 26.737 43.8309 27.766 41.6581 26.4151L34.5731 30.4791C29.6677 33.2935 26.9307 34.2122 24.8553 33.4534L20.6863 35.8468C12.8378 40.3499 9.12421 36.4907 7.32521 33.1134C5.52394 29.7361 3.77478 24.7489 11.6233 20.2458L15.7923 17.8547C16.1684 15.6887 18.339 13.7929 23.2443 10.9785L30.6148 6.75008C30.6601 4.12478 32.5022 3.06655 34.8654 1.71112C39.1567 -0.749815 41.7328 -2.22908 48.5301 9.4722C55.3273 21.1712 53.6099 22.1551 48.4598 25.1114ZM42.6301 21.1239C41.5629 19.791 40.362 17.9313 38.7194 15.1011C35.5201 9.59153 35.1372 7.47283 35.1418 6.87617C35.4499 6.56996 35.9008 6.31328 36.6847 5.86748L36.7119 5.85172C36.8411 5.77741 36.9816 5.69861 37.1311 5.6108C37.292 5.52074 37.4392 5.43518 37.5774 5.35412C38.3569 4.90381 38.8055 4.64489 39.2269 4.53231C39.7503 4.82726 41.4066 6.21421 44.6058 11.7237C46.2507 14.5517 47.2726 16.515 47.9002 18.1001C48.2242 18.8814 48.3352 19.5231 48.3873 19.8766C48.0248 20.1648 47.4992 20.4665 46.6812 20.9326L46.679 20.9348C46.5271 21.0204 46.3663 21.1127 46.1941 21.2118C46.0219 21.3086 45.861 21.4031 45.7115 21.4887C44.8935 21.9615 44.3679 22.2632 43.9351 22.4298C43.6542 22.2114 43.1489 21.7927 42.6301 21.1239ZM38.1937 23.2021L38.4271 23.067C37.3826 21.6395 36.1976 19.764 34.7951 17.3526C33.3926 14.9389 32.3889 12.9598 31.7182 11.3185L31.3965 11.5008L25.5101 14.8782C23.1854 16.2088 21.8237 17.1049 20.8834 17.9785C20.5254 18.278 20.3736 18.4919 20.3102 18.609V18.6112C20.3193 18.7328 20.3442 19.0728 20.6183 19.6807C21.0738 20.7524 21.8147 22.0291 22.8614 23.8303L23.1809 24.3819C24.2299 26.1854 24.9686 27.4598 25.6755 28.3874C26.0697 28.9278 26.3529 29.1192 26.4549 29.189H26.4572C26.5908 29.1935 26.8514 29.1687 27.2932 29.0111C28.5258 28.6396 29.9872 27.9123 32.3073 26.5794L38.1937 23.2021ZM16.9025 22.4163L16.8323 22.4569L13.8891 24.1478C10.7216 25.9625 10.4021 27.3112 10.3409 27.7345C10.239 28.4617 10.5018 29.4524 11.3288 31.006C12.0221 32.3074 12.7335 32.9873 13.377 33.2373C13.8211 33.4084 15.2417 33.7686 18.4206 31.9471L21.3638 30.2585L21.434 30.2157C20.7248 29.1597 19.9771 27.8696 19.1003 26.3633L19.098 26.3588C18.2212 24.848 17.4712 23.5579 16.9025 22.4163Z" fill="#7F5A52"/>
<path fill-rule="evenodd" clip-rule="evenodd" d="M5.66441 39.2646C4.58139 39.8861 3.19702 39.5168 2.5694 38.4406L0.303657 34.5409C-0.321689 33.4624 0.0498941 32.0867 1.13292 31.463C2.21821 30.8416 3.60258 31.2109 4.2302 32.2894L6.49594 36.189C7.12129 37.2653 6.74971 38.641 5.66441 39.2646Z" fill="#7F5A52"/>
<path fill-rule="evenodd" clip-rule="evenodd" d="M33.9704 34.8201C32.7605 35.1421 32.0445 36.3782 32.3685 37.5782L35.2664 48.3293C35.5315 49.3155 36.4287 50 37.4551 50C38.946 50 40.029 48.595 39.6438 47.1653L36.7437 36.4142C36.4219 35.2119 35.178 34.4981 33.9704 34.8201Z" fill="#7F5A52"/>
<path fill-rule="evenodd" clip-rule="evenodd" d="M27.2502 47.7485C27.2502 48.9913 26.2351 50 24.9844 50C23.7315 50 22.7187 48.9913 22.7187 47.7485V40.9938C22.7187 39.7487 23.7315 38.7423 24.9844 38.7423C26.2351 38.7423 27.2502 39.7487 27.2502 40.9938V47.7485Z" fill="#7F5A52"/>
<path fill-rule="evenodd" clip-rule="evenodd" d="M16.5287 48.3293C16.2636 49.3155 15.3641 50 14.34 50C12.8491 50 11.7661 48.595 12.1512 47.1653L13.2275 43.1688C13.5515 41.9665 14.7954 41.2527 16.003 41.5747C17.2129 41.8967 17.9289 43.1328 17.6049 44.3329L16.5287 48.3293Z" fill="#7F5A52"/>
</g>
<defs>
<filter id="filter0_i_19_16" x="0" y="0" width="53" height="56.8012" filterUnits="userSpaceOnUse" color-interpolation-filters="sRGB">
<feFlood flood-opacity="0" result="BackgroundImageFix"/>
<feBlend mode="normal" in="SourceGraphic" in2="BackgroundImageFix" result="shape"/>
<feColorMatrix in="SourceAlpha" type="matrix" values="0 0 0 0 0 0 0 0 0 0 0 0 0 0 0 0 0 0 127 0" result="hardAlpha"/>
<feOffset dy="6.80124"/>
<feGaussianBlur stdDeviation="3.40062"/>
<feComposite in2="hardAlpha" operator="arithmetic" k2="-1" k3="1"/>
<feColorMatrix type="matrix" values="0 0 0 0 0 0 0 0 0 0 0 0 0 0 0 0 0 0 0.25 0"/>
<feBlend mode="normal" in2="shape" result="effect1_innerShadow_19_16"/>
</filter>
</defs>
</svg>
