<svg width="47" height="47" viewBox="0 0 47 47" fill="none" xmlns="http://www.w3.org/2000/svg">
<g id="Group" filter="url(#filter0_i_143_22)">
<path id="Vector" fill-rule="evenodd" clip-rule="evenodd" d="M0.811431 16.4645C-0.270477 17.5437 -0.270477 19.2952 0.811431 20.3771C1.89057 21.4562 3.64487 21.4562 4.72401 20.3771L6.11859 18.9825L18.8082 37.1038C18.8746 37.2006 18.9493 37.2947 19.0268 37.3805L18.4208 37.9865C17.3389 39.0656 17.3389 40.8199 18.4208 41.899C19.4999 42.981 21.2542 42.981 22.3334 41.899L41.899 22.3334C42.981 21.2542 42.981 19.4999 41.899 18.4208C40.8199 17.3389 39.0656 17.3389 37.9865 18.4208L37.3999 19.0074L18.988 6.11306L20.3771 4.72401C21.4562 3.64487 21.4562 1.89057 20.3771 0.811431C19.2952 -0.270477 17.5437 -0.270477 16.4645 0.811431L0.811431 16.4645Z" fill="#816399"/>
<path id="Vector_2" fill-rule="evenodd" clip-rule="evenodd" d="M32.1176 36.0302L36.0302 32.1176L45.8144 41.899C46.8935 42.981 46.8935 44.7325 45.8144 45.8144C44.7325 46.8935 42.981 46.8935 41.9018 45.8144L32.1176 36.0302Z" fill="#816399"/>
</g>
<defs>
<filter id="filter0_i_143_22" x="0" y="0" width="46.6238" height="50.6238" filterUnits="userSpaceOnUse" color-interpolation-filters="sRGB">
<feFlood flood-opacity="0" result="BackgroundImageFix"/>
<feBlend mode="normal" in="SourceGraphic" in2="BackgroundImageFix" result="shape"/>
<feColorMatrix in="SourceAlpha" type="matrix" values="0 0 0 0 0 0 0 0 0 0 0 0 0 0 0 0 0 0 127 0" result="hardAlpha"/>
<feOffset dy="4"/>
<feGaussianBlur stdDeviation="2"/>
<feComposite in2="hardAlpha" operator="arithmetic" k2="-1" k3="1"/>
<feColorMatrix type="matrix" values="0 0 0 0 0 0 0 0 0 0 0 0 0 0 0 0 0 0 0.25 0"/>
<feBlend mode="normal" in2="shape" result="effect1_innerShadow_143_22"/>
</filter>
</defs>
</svg>
