<svg width="80" height="80" viewBox="0 0 80 80" fill="none" xmlns="http://www.w3.org/2000/svg">
<g id="Pin">
<g id="Group">
<path id="Vector" fill-rule="evenodd" clip-rule="evenodd" d="M19.9825 35.375C19.005 36.35 19.005 37.9325 19.9825 38.91C20.9575 39.885 22.5425 39.885 23.5175 38.91L24.7775 37.65L36.2425 54.0225C36.3025 54.11 36.37 54.195 36.44 54.2725L35.8925 54.82C34.915 55.795 34.915 57.38 35.8925 58.355C36.8675 59.3325 38.4525 59.3325 39.4275 58.355L57.105 40.6775C58.0825 39.7025 58.0825 38.1175 57.105 37.1425C56.13 36.165 54.545 36.165 53.57 37.1425L53.04 37.6725L36.405 26.0225L37.66 24.7675C38.635 23.7925 38.635 22.2075 37.66 21.2325C36.6825 20.255 35.1 20.255 34.125 21.2325L19.9825 35.375Z" fill="#816399"/>
<path id="Vector_2" fill-rule="evenodd" clip-rule="evenodd" d="M48.2675 53.0525L51.8025 49.5175L60.6425 58.355C61.6175 59.3325 61.6175 60.915 60.6425 61.8925C59.665 62.8675 58.0825 62.8675 57.1075 61.8925L48.2675 53.0525Z" fill="#816399"/>
</g>
</g>
</svg>
