<svg width="63" height="64" viewBox="0 0 63 64" fill="none" xmlns="http://www.w3.org/2000/svg">
<path id="Vector" fill-rule="evenodd" clip-rule="evenodd" d="M31.5 5.75C44.8875 5.75 50.5234 7.262 53.382 10.1206C56.2406 12.9792 57.75 18.6125 57.75 32C57.75 45.3875 56.2406 51.0234 53.382 53.882C50.5234 56.7406 44.8875 58.25 31.5 58.25C18.1125 58.25 12.4766 56.7406 9.618 53.882C6.75938 51.0234 5.25 45.3875 5.25 32C5.25 18.6125 6.75938 12.9766 9.618 10.1206C12.4766 7.262 18.1125 5.75 31.5 5.75ZM63 32C63 5.75 57.75 0.5 31.5 0.5C5.25 0.5 0 5.75 0 32C0 58.25 5.25 63.5 31.5 63.5C57.75 63.5 63 58.25 63 32ZM12.4688 32C12.4688 32.882 12.9281 33.6196 13.3402 34.1656L13.3429 34.1709C15.5374 37.0243 18.6034 39.3631 21.4856 41.5629C21.7219 41.7414 21.9555 41.9225 22.1891 42.101L22.3965 42.2585C22.5566 42.3819 22.7168 42.5052 22.8769 42.6286L22.8795 42.6312C23.9137 43.4319 25.4441 43.3085 26.3183 42.3346C27.2186 41.3319 27.0637 39.833 26.0006 39.0114C25.5334 38.6491 25.0582 38.2869 24.5831 37.922C22.1681 36.0766 19.7164 34.2024 17.8133 32C19.74 29.7661 22.1471 27.9312 24.5753 26.0806C25.0504 25.7184 25.5281 25.3561 26.0006 24.9912C27.0611 24.1696 27.2186 22.6707 26.3183 21.668C25.4441 20.6915 23.9111 20.5734 22.8795 21.3714C22.4044 21.7362 21.9266 22.1011 21.4463 22.4686L21.42 22.487C18.5351 24.6815 15.5715 26.9364 13.3429 29.8317L13.3402 29.8344C12.9281 30.3804 12.4688 31.1206 12.4688 32ZM50.5312 32C50.5312 32.882 50.0719 33.6196 49.6597 34.1656L49.6571 34.1709C47.4626 37.0243 44.3966 39.3631 41.5144 41.5629C41.0445 41.9199 40.5799 42.2769 40.1231 42.6286L40.1205 42.6312C39.0863 43.4319 37.5559 43.3085 36.6818 42.3346C35.7814 41.3319 35.9362 39.833 36.9994 39.0114C37.4666 38.6491 37.9417 38.2869 38.4169 37.922C40.8319 36.0766 43.2836 34.2024 45.1868 32C43.26 29.7661 40.8529 27.9312 38.4248 26.0806L38.4195 26.078C37.947 25.7184 37.4719 25.3561 36.9994 24.9912C35.9389 24.1696 35.7814 22.6707 36.6818 21.668C37.5559 20.6915 39.0889 20.5734 40.1205 21.3714C40.6035 21.7441 41.0891 22.1143 41.58 22.487C44.4649 24.6815 47.4285 26.9364 49.6571 29.8317L49.6597 29.8344C50.0719 30.3804 50.5312 31.1206 50.5312 32Z" fill="#3D9D02"/>
</svg>
