<svg width="48" height="48" viewBox="0 0 48 48" fill="none" xmlns="http://www.w3.org/2000/svg">
<g id="Vector" filter="url(#filter0_i_19_15)">
<path fill-rule="evenodd" clip-rule="evenodd" d="M24 4C34.2 4 38.494 5.152 40.672 7.33C42.85 9.508 44 13.8 44 24C44 34.2 42.85 38.494 40.672 40.672C38.494 42.85 34.2 44 24 44C13.8 44 9.506 42.85 7.328 40.672C5.15 38.494 4 34.2 4 24C4 13.8 5.15 9.506 7.328 7.33C9.506 5.152 13.8 4 24 4ZM48 24C48 4 44 0 24 0C4 0 0 4 0 24C0 44 4 48 24 48C44 48 48 44 48 24ZM9.5 24C9.5 24.672 9.85 25.234 10.164 25.65L10.166 25.654C11.838 27.828 14.174 29.61 16.37 31.286C16.55 31.422 16.728 31.56 16.906 31.696L17.064 31.816C17.186 31.91 17.308 32.004 17.43 32.098L17.432 32.1C18.22 32.71 19.386 32.616 20.052 31.874C20.738 31.11 20.62 29.968 19.81 29.342C19.454 29.066 19.092 28.79 18.73 28.512C16.89 27.106 15.022 25.678 13.572 24C15.04 22.298 16.874 20.9 18.724 19.49C19.086 19.214 19.45 18.938 19.81 18.66C20.618 18.034 20.738 16.892 20.052 16.128C19.386 15.384 18.218 15.294 17.432 15.902C17.07 16.18 16.706 16.458 16.34 16.738L16.32 16.752C14.122 18.424 11.864 20.142 10.166 22.348L10.164 22.35C9.85 22.766 9.5 23.33 9.5 24ZM38.5 24C38.5 24.672 38.15 25.234 37.836 25.65L37.834 25.654C36.162 27.828 33.826 29.61 31.63 31.286C31.272 31.558 30.918 31.83 30.57 32.098L30.568 32.1C29.78 32.71 28.614 32.616 27.948 31.874C27.262 31.11 27.38 29.968 28.19 29.342C28.546 29.066 28.908 28.79 29.27 28.512C31.11 27.106 32.978 25.678 34.428 24C32.96 22.298 31.126 20.9 29.276 19.49L29.272 19.488C28.912 19.214 28.55 18.938 28.19 18.66C27.382 18.034 27.262 16.892 27.948 16.128C28.614 15.384 29.782 15.294 30.568 15.902C30.936 16.186 31.306 16.468 31.68 16.752C33.878 18.424 36.136 20.142 37.834 22.348L37.836 22.35C38.15 22.766 38.5 23.33 38.5 24Z" fill="#3D9D02"/>
</g>
<defs>
<filter id="filter0_i_19_15" x="0" y="0" width="48" height="52" filterUnits="userSpaceOnUse" color-interpolation-filters="sRGB">
<feFlood flood-opacity="0" result="BackgroundImageFix"/>
<feBlend mode="normal" in="SourceGraphic" in2="BackgroundImageFix" result="shape"/>
<feColorMatrix in="SourceAlpha" type="matrix" values="0 0 0 0 0 0 0 0 0 0 0 0 0 0 0 0 0 0 127 0" result="hardAlpha"/>
<feOffset dy="4"/>
<feGaussianBlur stdDeviation="2"/>
<feComposite in2="hardAlpha" operator="arithmetic" k2="-1" k3="1"/>
<feColorMatrix type="matrix" values="0 0 0 0 0 0 0 0 0 0 0 0 0 0 0 0 0 0 0.25 0"/>
<feBlend mode="normal" in2="shape" result="effect1_innerShadow_19_15"/>
</filter>
</defs>
</svg>
