<svg width="56" height="59" viewBox="0 0 56 59" fill="none" xmlns="http://www.w3.org/2000/svg">
<g id="Vector" filter="url(#filter0_i_41_176)">
<path fill-rule="evenodd" clip-rule="evenodd" d="M49.2363 12.5962C49.8356 13.6425 49.3609 14.9487 48.2652 15.4514L48.0439 15.5524C47.1051 15.9842 45.9965 15.5803 45.4788 14.6844C42.9029 10.2201 39.1884 6.82358 34.9153 4.64514C33.8561 4.1059 33.3233 2.85341 33.7788 1.75345C34.2299 0.65993 35.4846 0.131433 36.5459 0.655633C41.6697 3.18855 46.1276 7.21458 49.1997 12.5361L49.2363 12.5962ZM43.7816 15.6641C44.2435 16.4611 43.8804 17.4623 43.0447 17.8468L41.8244 18.4054C41.1778 18.7019 40.4172 18.429 40.0606 17.8124C38.2023 14.5921 35.5619 12.1064 32.5177 10.4543C31.4715 9.88499 30.9365 8.6368 31.392 7.53684C31.8431 6.44332 33.0978 5.91267 34.1483 6.45406C38.0433 8.46922 41.427 11.5843 43.7816 15.6641ZM50.71 27.4027C50.4307 28.0215 50.1429 28.6617 49.9882 29.3148C49.3866 31.8477 49.9882 34.9693 49.9882 34.9693C49.9882 34.9693 51.0903 41.0599 49.9882 44.1836C48.1513 49.3891 44.6796 53.3206 39.0036 53.3206C36.2494 53.3206 33.0634 50.7275 30.5047 48.6436L30.5004 48.6414C29.6668 47.9626 28.902 47.3395 28.2382 46.8776C26.5044 45.6681 22.8544 43.5649 20.2656 42.0718C18.8262 41.2425 17.7155 40.6023 17.4469 40.4111C16.0913 39.4486 15.8765 37.6053 16.6306 36.4001C17.3846 35.1948 19.3053 34.4451 20.7748 35.6052C22.2442 36.7653 27.1038 39.7752 27.1038 39.7752C27.1038 39.7752 19.2838 31.8735 17.9024 30.7069C16.5189 29.5382 16.3405 27.4844 17.4469 26.3801C18.5512 25.2759 20.2914 25.2243 21.3118 26.0557C22.3323 26.8871 30.6873 34.9693 30.6873 34.9693C30.6873 34.9693 22.1218 24.163 21.3118 23.164C20.5041 22.165 20.2742 20.412 21.3118 19.3743C22.3517 18.3345 24.1584 18.3302 25.2348 19.3743C26.3089 20.4184 34.6403 30.4899 34.6403 30.4899C34.6403 30.4899 28.9063 20.8696 28.2382 19.3743C27.5722 17.879 28.1737 15.9434 29.5637 15.4213C30.9558 14.9014 32.537 15.3053 33.4351 16.56C33.6821 16.9015 34.3653 18.1583 35.2612 19.8061C37.6501 24.1974 41.5516 31.3686 42.6795 31.3686C43.7042 31.3686 43.7773 30.7843 43.9191 29.6392C43.9921 29.0505 44.0845 28.3115 44.3337 27.4307C44.9932 25.0975 48.7872 21.1596 50.9313 23.6603C51.8895 24.7796 51.3202 26.0428 50.71 27.4027ZM52.433 54.4614C47.6637 59.6647 45.1887 58.8548 43.5624 57.6581C40.0821 55.0994 40.5418 54.9297 42.4732 54.21C43.8654 53.6944 46.018 52.8952 48.0138 50.7168C49.8249 48.7403 50.6499 46.912 51.2063 45.6767C52.1172 43.6594 52.3149 43.2233 54.9316 46.3062C56.2399 47.8444 57.2045 49.258 52.433 54.4614ZM7.6096 35.7083C6.59342 35.8823 5.91024 36.8577 6.17664 37.8545C7.52366 42.8817 10.2607 47.1634 13.8635 50.3988C14.7422 51.1894 16.0935 51.0025 16.8132 50.0615C17.535 49.1184 17.3438 47.7714 16.4716 46.9614C13.5992 44.2932 11.4186 40.8107 10.3273 36.7438C10.1146 35.9489 9.34762 35.414 8.53554 35.5515L7.6096 35.7083ZM1.78969 36.6965C2.91972 36.5053 3.98746 37.2551 4.28393 38.3615C5.74697 43.8162 8.7289 48.4567 12.6561 51.9478C13.5455 52.7384 13.7324 54.0854 13.0106 55.0285C12.2909 55.9695 10.9417 56.1564 10.048 55.3787C5.39249 51.3247 1.85199 45.8872 0.1333 39.4744C0.109668 39.3863 0.088184 39.2982 0.0645521 39.208C-0.238367 38.0436 0.558676 36.9071 1.74672 36.7051L1.78969 36.6965Z" fill="#BD5B33"/>
</g>
<defs>
<filter id="filter0_i_41_176" x="0" y="0.451595" width="56" height="61.5968" filterUnits="userSpaceOnUse" color-interpolation-filters="sRGB">
<feFlood flood-opacity="0" result="BackgroundImageFix"/>
<feBlend mode="normal" in="SourceGraphic" in2="BackgroundImageFix" result="shape"/>
<feColorMatrix in="SourceAlpha" type="matrix" values="0 0 0 0 0 0 0 0 0 0 0 0 0 0 0 0 0 0 127 0" result="hardAlpha"/>
<feOffset dy="3.5"/>
<feGaussianBlur stdDeviation="1.75"/>
<feComposite in2="hardAlpha" operator="arithmetic" k2="-1" k3="1"/>
<feColorMatrix type="matrix" values="0 0 0 0 0 0 0 0 0 0 0 0 0 0 0 0 0 0 0.25 0"/>
<feBlend mode="normal" in2="shape" result="effect1_innerShadow_41_176"/>
</filter>
</defs>
</svg>
