<svg width="59" height="60" viewBox="0 0 59 60" fill="none" xmlns="http://www.w3.org/2000/svg">
<g id="Vector" filter="url(#filter0_i_41_184)">
<path fill-rule="evenodd" clip-rule="evenodd" d="M58.4845 30.0001C58.4845 5.63152 53.6108 0.757812 29.2422 0.757812C4.87371 0.757812 0 5.63152 0 30.0001C0 54.3686 4.87371 59.2423 29.2422 59.2423C53.6108 59.2423 58.4845 54.3686 58.4845 30.0001ZM49.5559 50.3137C52.2096 47.6599 53.6108 42.428 53.6108 30.0001C53.6108 24.7852 53.3647 20.8375 52.8797 17.8158H5.60476C5.11739 20.8375 4.87371 24.7852 4.87371 30.0001C4.87371 42.428 6.2749 47.6599 8.92863 50.3137C11.5824 52.9674 16.8143 54.3686 29.2422 54.3686C41.6702 54.3686 46.9021 52.9674 49.5559 50.3137ZM17.058 10.5052C17.058 9.85894 17.3147 9.23911 17.7717 8.78211C18.2287 8.32511 18.8485 8.06837 19.4948 8.06837H38.9897C39.636 8.06837 40.2558 8.32511 40.7128 8.78211C41.1698 9.23911 41.4265 9.85894 41.4265 10.5052C41.4265 11.1515 41.1698 11.7713 40.7128 12.2283C40.2558 12.6853 39.636 12.9421 38.9897 12.9421H19.4948C18.8485 12.9421 18.2287 12.6853 17.7717 12.2283C17.3147 11.7713 17.058 11.1515 17.058 10.5052Z" fill="#D0A73D"/>
<path fill-rule="evenodd" clip-rule="evenodd" d="M12.3841 38.1026C12.0015 37.5933 11.5751 36.9085 11.5751 36.0922C11.5751 35.2759 12.0015 34.5887 12.3841 34.0794H12.3865C14.4554 31.3891 17.2066 29.2958 19.8847 27.261L19.9091 27.2415L21.2396 26.2229C21.7107 25.8631 22.2991 25.6922 22.8896 25.7436C23.4801 25.7949 24.0301 26.065 24.4319 26.5007C24.6275 26.7167 24.776 26.9712 24.8677 27.2477C24.9595 27.5243 24.9925 27.817 24.9648 28.1071C24.937 28.3972 24.8491 28.6783 24.7066 28.9325C24.564 29.1867 24.3701 29.4084 24.137 29.5834C23.6984 29.9245 23.2549 30.2584 22.8138 30.5947C20.5597 32.3151 18.3251 34.016 16.5365 36.0922C18.3032 38.1343 20.5792 39.8742 22.8211 41.5897C23.2622 41.9285 23.7033 42.2623 24.137 42.601C24.3704 42.7758 24.5646 42.9974 24.7074 43.2516C24.8501 43.5058 24.9382 43.787 24.9659 44.0772C24.9937 44.3674 24.9605 44.6602 24.8686 44.9368C24.7766 45.2134 24.6279 45.4678 24.4319 45.6837C24.0298 46.1191 23.4796 46.3886 22.8891 46.4396C22.2986 46.4905 21.7104 46.3191 21.2396 45.959L20.7912 45.613L20.5987 45.4668L19.9457 44.9672L19.9383 44.9623C17.2651 42.9227 14.4213 40.7515 12.3865 38.105L12.3841 38.1002V38.1026ZM46.1004 38.1026C46.483 37.5933 46.9094 36.9085 46.9094 36.0922C46.9094 35.2759 46.483 34.5887 46.1004 34.0794C44.0315 31.3891 41.2779 29.2958 38.5998 27.261C38.1468 26.9176 37.6952 26.5724 37.2449 26.2254C36.7744 25.865 36.1864 25.6932 35.5959 25.7437C35.0054 25.7941 34.455 26.0633 34.0526 26.4983C33.8566 26.7143 33.7078 26.9689 33.6158 27.2458C33.5238 27.5226 33.4906 27.8156 33.5184 28.106C33.5462 28.3964 33.6342 28.6778 33.777 28.9322C33.9198 29.1866 34.1141 29.4084 34.3475 29.5834C34.7861 29.9245 35.2272 30.2584 35.6658 30.5947H35.6707C37.9248 32.3151 40.1594 34.016 41.948 36.0922C40.1813 38.1343 37.9053 39.8742 35.6634 41.5897C35.2223 41.9285 34.7812 42.2623 34.3475 42.601C34.1141 42.7758 33.9199 42.9974 33.7771 43.2516C33.6344 43.5058 33.5463 43.787 33.5186 44.0772C33.4908 44.3674 33.524 44.6602 33.6159 44.9368C33.7079 45.2134 33.8566 45.4678 34.0526 45.6837C34.4547 46.1191 35.0049 46.3886 35.5954 46.4396C36.1859 46.4905 36.7741 46.3191 37.2449 45.959L38.5388 44.9672L38.5462 44.9623C41.2194 42.9227 44.0632 40.7515 46.098 38.105L46.1004 38.1002V38.1026Z" fill="#D0A73D"/>
</g>
<defs>
<filter id="filter0_i_41_184" x="0" y="0.757812" width="58.4845" height="64.6156" filterUnits="userSpaceOnUse" color-interpolation-filters="sRGB">
<feFlood flood-opacity="0" result="BackgroundImageFix"/>
<feBlend mode="normal" in="SourceGraphic" in2="BackgroundImageFix" result="shape"/>
<feColorMatrix in="SourceAlpha" type="matrix" values="0 0 0 0 0 0 0 0 0 0 0 0 0 0 0 0 0 0 127 0" result="hardAlpha"/>
<feOffset dy="6.13114"/>
<feGaussianBlur stdDeviation="3.06557"/>
<feComposite in2="hardAlpha" operator="arithmetic" k2="-1" k3="1"/>
<feColorMatrix type="matrix" values="0 0 0 0 0 0 0 0 0 0 0 0 0 0 0 0 0 0 0.25 0"/>
<feBlend mode="normal" in2="shape" result="effect1_innerShadow_41_184"/>
</filter>
</defs>
</svg>
